M48
; DRILL file {KiCad 7.0.1} date Sun 02 Apr 2023 03:53:15 PM BST
; FORMAT={-:-/ absolute / metric / decimal}
; #@! TF.CreationDate,2023-04-02T15:53:15+01:00
; #@! TF.GenerationSoftware,Kicad,Pcbnew,7.0.1
; #@! TF.FileFunction,Plated,1,2,PTH
FMAT,2
METRIC
; #@! TA.AperFunction,Plated,PTH,ViaDrill
T1C0.300
; #@! TA.AperFunction,Plated,PTH,ViaDrill
T2C0.400
; #@! TA.AperFunction,Plated,PTH,ComponentDrill
T3C1.000
; #@! TA.AperFunction,Plated,PTH,ComponentDrill
T4C1.100
; #@! TA.AperFunction,Plated,PTH,ComponentDrill
T5C1.400
%
G90
G05
T1
X61.75Y-115.5
X62.0Y-110.0
X62.0Y-121.25
X66.25Y-143.75
X66.25Y-147.75
X71.5Y-124.25
X72.5Y-143.75
X72.5Y-147.75
X77.25Y-124.25
X85.25Y-124.5
X85.25Y-141.75
X85.25Y-142.5
X90.0Y-105.5
X90.75Y-147.75
X105.0Y-147.75
X105.75Y-104.0
X109.0Y-111.75
X112.25Y-133.75
X112.25Y-134.5
X112.25Y-137.5
X112.25Y-138.25
X115.25Y-119.75
X115.75Y-124.75
X117.0Y-147.75
X121.25Y-118.75
X122.25Y-127.5
X123.0Y-147.75
X125.5Y-127.75
X126.25Y-147.75
X126.497Y-128.008
X126.75Y-127.25
X130.75Y-119.25
X133.75Y-130.25
X134.0Y-145.5
X135.5Y-129.75
X137.75Y-112.0
X138.5Y-146.25
X139.0Y-111.0
X139.25Y-119.975
X139.25Y-121.525
X140.75Y-110.084
X141.35Y-111.399
X141.365Y-110.599
X142.25Y-115.75
X142.75Y-128.0
X143.0Y-119.5
X143.124Y-110.029
X143.5Y-128.0
X143.978Y-110.024
X143.992Y-110.857
X144.0Y-118.5
X144.0Y-121.5
X144.0Y-146.25
X144.5Y-128.0
X145.0Y-117.5
X145.0Y-120.5
X145.75Y-123.75
X145.785Y-121.142
X146.0Y-116.5
X146.0Y-119.5
X146.5Y-121.5
X146.75Y-122.75
X147.0Y-118.5
X147.75Y-121.75
X148.0Y-117.5
X148.0Y-138.25
X148.0Y-139.0
X148.75Y-120.75
X149.25Y-141.75
X149.75Y-119.75
X149.75Y-138.25
X149.75Y-139.0
X150.0Y-142.25
X150.25Y-111.75
X150.25Y-140.5
X150.75Y-141.0
X150.969Y-139.5
X151.25Y-111.75
X151.25Y-131.5
X151.377Y-138.812
X151.769Y-138.0
X151.798Y-135.701
X151.848Y-134.902
X153.5Y-148.0
X153.649Y-137.781
X153.75Y-136.189
X153.75Y-135.389
X153.751Y-136.988
X154.0Y-138.5
X154.0Y-141.75
X156.0Y-113.75
X156.0Y-141.5
X156.0Y-143.25
X156.5Y-147.75
X157.0Y-116.75
X157.75Y-141.5
X157.75Y-143.25
X159.75Y-141.5
X159.75Y-143.25
X159.75Y-145.75
X161.25Y-147.75
X163.7Y-147.2
X164.0Y-136.0
X167.5Y-130.25
X167.75Y-128.9
X168.437Y-129.563
X168.75Y-106.802
X168.75Y-107.601
X168.75Y-108.401
X168.75Y-109.2
X168.75Y-110.0
X169.75Y-131.65
X171.25Y-126.5
X172.5Y-107.25
X172.75Y-104.999
X172.75Y-130.5
X173.0Y-136.0
X174.777Y-104.999
X175.25Y-126.5
X176.75Y-107.5
X178.25Y-130.75
X178.9Y-130.15
X179.75Y-126.5
X180.75Y-105.25
X180.75Y-129.5
X181.5Y-110.0
X183.25Y-144.694
X183.75Y-126.5
X184.0Y-107.5
X184.0Y-110.25
X185.0Y-128.75
X186.25Y-107.5
X186.25Y-110.25
X187.75Y-107.5
X187.75Y-126.5
X187.75Y-135.399
X188.75Y-129.5
X189.25Y-110.25
X192.25Y-126.5
X193.5Y-107.5
X193.5Y-110.5
X196.25Y-126.5
X197.75Y-107.25
X197.75Y-110.25
X200.75Y-126.5
X202.0Y-141.5
X202.25Y-109.25
X203.75Y-101.5
X204.25Y-104.0
X204.75Y-126.5
X205.5Y-123.5
X205.5Y-128.75
X205.5Y-131.75
X205.75Y-143.075
X205.75Y-145.75
X205.75Y-146.5
X205.75Y-147.25
X207.5Y-140.25
X207.5Y-145.75
X207.5Y-146.5
X207.5Y-147.25
X208.0Y-105.5
X208.0Y-134.75
X208.0Y-135.5
X208.0Y-136.25
X208.0Y-139.75
X208.25Y-111.0
X208.701Y-129.451
X208.75Y-126.5
X209.25Y-101.5
X209.75Y-123.5
X210.25Y-107.25
X210.75Y-109.0
X213.25Y-126.5
X213.5Y-103.25
X214.75Y-107.5
X215.0Y-109.0
X217.25Y-126.5
X220.5Y-105.0
X220.5Y-111.5
X227.5Y-120.25
X228.0Y-136.5
T2
X54.0Y-125.25
X54.0Y-140.5
X66.75Y-105.0
X71.75Y-133.75
X74.25Y-133.75
X76.75Y-133.75
X79.25Y-133.75
X80.75Y-105.0
X81.75Y-133.75
X84.0Y-133.75
X85.25Y-146.25
X85.25Y-147.25
X86.5Y-133.75
X90.5Y-133.75
X95.0Y-105.0
X97.5Y-129.75
X100.45Y-130.0
X106.5Y-119.0
X108.5Y-105.0
X109.825Y-128.5
X113.45Y-128.5
X117.25Y-127.675
X123.0Y-105.0
X124.75Y-130.0
X126.0Y-140.25
X126.25Y-141.5
X127.5Y-106.0
X130.75Y-109.0
X131.0Y-134.749
X131.25Y-123.0
X131.25Y-129.75
X132.25Y-120.25
X132.25Y-138.75
X132.361Y-133.749
X133.0Y-147.75
X133.5Y-132.749
X133.75Y-134.249
X134.5Y-132.249
X134.5Y-141.5
X134.75Y-127.25
X134.75Y-128.5
X135.229Y-125.499
X135.25Y-131.5
X135.25Y-135.975
X135.525Y-133.449
X135.999Y-142.25
X137.525Y-140.5
X138.0Y-105.0
X138.83Y-126.507
X141.525Y-139.75
X142.825Y-131.5
X142.825Y-132.5
X142.825Y-133.499
X143.924Y-133.6
X144.008Y-134.596
X145.25Y-134.5
X145.262Y-135.512
X146.25Y-136.0
X146.25Y-147.5
X147.049Y-135.293
X148.0Y-136.1
X152.0Y-105.0
X157.22Y-125.72
X158.5Y-115.5
X159.0Y-125.0
X166.0Y-101.75
X166.0Y-142.75
X168.25Y-147.25
X170.5Y-145.75
X171.25Y-142.75
X171.5Y-145.75
X178.0Y-145.5
X181.25Y-101.5
X184.5Y-148.0
X185.5Y-147.0
X185.5Y-148.0
X189.25Y-140.25
X194.5Y-142.5
X194.5Y-147.0
X195.25Y-101.5
X199.25Y-142.75
X199.5Y-148.024
X205.75Y-137.25
X205.75Y-138.25
X205.75Y-139.25
X214.5Y-146.0
X214.5Y-147.0
X214.5Y-148.0
X226.0Y-125.25
X226.0Y-141.0
T3
X160.75Y-111.25
X160.75Y-113.79
X160.75Y-116.33
X160.75Y-118.87
X163.29Y-111.25
X163.29Y-113.79
X163.29Y-116.33
X163.29Y-118.87
T4
X210.5Y-130.75
X210.5Y-135.25
X217.0Y-130.75
X217.0Y-135.25
T5
X71.0Y-115.5
X71.0Y-121.0
X75.2Y-115.5
X75.2Y-121.0
X79.4Y-115.5
X79.4Y-121.0
X83.6Y-115.5
X83.6Y-121.0
X87.8Y-115.5
X87.8Y-121.0
X92.0Y-115.5
X92.0Y-121.0
X96.2Y-115.5
X96.2Y-121.0
X100.4Y-115.5
X100.4Y-121.0
X104.6Y-115.5
X104.6Y-121.0
X108.8Y-115.5
X108.8Y-121.0
X113.0Y-115.5
X113.0Y-121.0
X170.4Y-115.5
X170.4Y-121.0
X174.6Y-115.5
X174.6Y-121.0
X178.8Y-115.5
X178.8Y-121.0
X183.0Y-115.5
X183.0Y-121.0
X187.2Y-115.5
X187.2Y-121.0
X191.4Y-115.5
X191.4Y-121.0
X195.6Y-115.5
X195.6Y-121.0
X199.8Y-115.5
X199.8Y-121.0
X204.0Y-115.5
X204.0Y-121.0
X208.2Y-115.5
X208.2Y-121.0
X212.4Y-115.5
X212.4Y-121.0
X216.6Y-115.5
X216.6Y-121.0
T0
M30
