G04 #@! TF.GenerationSoftware,KiCad,Pcbnew,7.0.1*
G04 #@! TF.CreationDate,2023-04-02T15:52:54+01:00*
G04 #@! TF.ProjectId,ecu,6563752e-6b69-4636-9164-5f7063625858,rev?*
G04 #@! TF.SameCoordinates,Original*
G04 #@! TF.FileFunction,Legend,Bot*
G04 #@! TF.FilePolarity,Positive*
%FSLAX46Y46*%
G04 Gerber Fmt 4.6, Leading zero omitted, Abs format (unit mm)*
G04 Created by KiCad (PCBNEW 7.0.1) date 2023-04-02 15:52:54*
%MOMM*%
%LPD*%
G01*
G04 APERTURE LIST*
G04 Aperture macros list*
%AMRoundRect*
0 Rectangle with rounded corners*
0 $1 Rounding radius*
0 $2 $3 $4 $5 $6 $7 $8 $9 X,Y pos of 4 corners*
0 Add a 4 corners polygon primitive as box body*
4,1,4,$2,$3,$4,$5,$6,$7,$8,$9,$2,$3,0*
0 Add four circle primitives for the rounded corners*
1,1,$1+$1,$2,$3*
1,1,$1+$1,$4,$5*
1,1,$1+$1,$6,$7*
1,1,$1+$1,$8,$9*
0 Add four rect primitives between the rounded corners*
20,1,$1+$1,$2,$3,$4,$5,0*
20,1,$1+$1,$4,$5,$6,$7,0*
20,1,$1+$1,$6,$7,$8,$9,0*
20,1,$1+$1,$8,$9,$2,$3,0*%
G04 Aperture macros list end*
%ADD10C,0.150000*%
%ADD11C,0.120000*%
%ADD12RoundRect,0.225000X0.250000X-0.225000X0.250000X0.225000X-0.250000X0.225000X-0.250000X-0.225000X0*%
%ADD13RoundRect,0.250000X-0.600000X-0.600000X0.600000X-0.600000X0.600000X0.600000X-0.600000X0.600000X0*%
%ADD14C,1.700000*%
%ADD15RoundRect,0.250001X1.099999X1.399999X-1.099999X1.399999X-1.099999X-1.399999X1.099999X-1.399999X0*%
%ADD16O,2.700000X3.300000*%
%ADD17C,2.000000*%
%ADD18RoundRect,0.250000X-0.450000X0.325000X-0.450000X-0.325000X0.450000X-0.325000X0.450000X0.325000X0*%
%ADD19RoundRect,0.250000X0.325000X0.450000X-0.325000X0.450000X-0.325000X-0.450000X0.325000X-0.450000X0*%
G04 APERTURE END LIST*
D10*
G04 #@! TO.C,C29*
X139297380Y-125107142D02*
X139345000Y-125059523D01*
X139345000Y-125059523D02*
X139392619Y-124916666D01*
X139392619Y-124916666D02*
X139392619Y-124821428D01*
X139392619Y-124821428D02*
X139345000Y-124678571D01*
X139345000Y-124678571D02*
X139249761Y-124583333D01*
X139249761Y-124583333D02*
X139154523Y-124535714D01*
X139154523Y-124535714D02*
X138964047Y-124488095D01*
X138964047Y-124488095D02*
X138821190Y-124488095D01*
X138821190Y-124488095D02*
X138630714Y-124535714D01*
X138630714Y-124535714D02*
X138535476Y-124583333D01*
X138535476Y-124583333D02*
X138440238Y-124678571D01*
X138440238Y-124678571D02*
X138392619Y-124821428D01*
X138392619Y-124821428D02*
X138392619Y-124916666D01*
X138392619Y-124916666D02*
X138440238Y-125059523D01*
X138440238Y-125059523D02*
X138487857Y-125107142D01*
X138487857Y-125488095D02*
X138440238Y-125535714D01*
X138440238Y-125535714D02*
X138392619Y-125630952D01*
X138392619Y-125630952D02*
X138392619Y-125869047D01*
X138392619Y-125869047D02*
X138440238Y-125964285D01*
X138440238Y-125964285D02*
X138487857Y-126011904D01*
X138487857Y-126011904D02*
X138583095Y-126059523D01*
X138583095Y-126059523D02*
X138678333Y-126059523D01*
X138678333Y-126059523D02*
X138821190Y-126011904D01*
X138821190Y-126011904D02*
X139392619Y-125440476D01*
X139392619Y-125440476D02*
X139392619Y-126059523D01*
X139392619Y-126535714D02*
X139392619Y-126726190D01*
X139392619Y-126726190D02*
X139345000Y-126821428D01*
X139345000Y-126821428D02*
X139297380Y-126869047D01*
X139297380Y-126869047D02*
X139154523Y-126964285D01*
X139154523Y-126964285D02*
X138964047Y-127011904D01*
X138964047Y-127011904D02*
X138583095Y-127011904D01*
X138583095Y-127011904D02*
X138487857Y-126964285D01*
X138487857Y-126964285D02*
X138440238Y-126916666D01*
X138440238Y-126916666D02*
X138392619Y-126821428D01*
X138392619Y-126821428D02*
X138392619Y-126630952D01*
X138392619Y-126630952D02*
X138440238Y-126535714D01*
X138440238Y-126535714D02*
X138487857Y-126488095D01*
X138487857Y-126488095D02*
X138583095Y-126440476D01*
X138583095Y-126440476D02*
X138821190Y-126440476D01*
X138821190Y-126440476D02*
X138916428Y-126488095D01*
X138916428Y-126488095D02*
X138964047Y-126535714D01*
X138964047Y-126535714D02*
X139011666Y-126630952D01*
X139011666Y-126630952D02*
X139011666Y-126821428D01*
X139011666Y-126821428D02*
X138964047Y-126916666D01*
X138964047Y-126916666D02*
X138916428Y-126964285D01*
X138916428Y-126964285D02*
X138821190Y-127011904D01*
G04 #@! TO.C,SW1*
X215083332Y-137665000D02*
X214940475Y-137712619D01*
X214940475Y-137712619D02*
X214702380Y-137712619D01*
X214702380Y-137712619D02*
X214607142Y-137665000D01*
X214607142Y-137665000D02*
X214559523Y-137617380D01*
X214559523Y-137617380D02*
X214511904Y-137522142D01*
X214511904Y-137522142D02*
X214511904Y-137426904D01*
X214511904Y-137426904D02*
X214559523Y-137331666D01*
X214559523Y-137331666D02*
X214607142Y-137284047D01*
X214607142Y-137284047D02*
X214702380Y-137236428D01*
X214702380Y-137236428D02*
X214892856Y-137188809D01*
X214892856Y-137188809D02*
X214988094Y-137141190D01*
X214988094Y-137141190D02*
X215035713Y-137093571D01*
X215035713Y-137093571D02*
X215083332Y-136998333D01*
X215083332Y-136998333D02*
X215083332Y-136903095D01*
X215083332Y-136903095D02*
X215035713Y-136807857D01*
X215035713Y-136807857D02*
X214988094Y-136760238D01*
X214988094Y-136760238D02*
X214892856Y-136712619D01*
X214892856Y-136712619D02*
X214654761Y-136712619D01*
X214654761Y-136712619D02*
X214511904Y-136760238D01*
X214178570Y-136712619D02*
X213940475Y-137712619D01*
X213940475Y-137712619D02*
X213749999Y-136998333D01*
X213749999Y-136998333D02*
X213559523Y-137712619D01*
X213559523Y-137712619D02*
X213321428Y-136712619D01*
X212416666Y-137712619D02*
X212988094Y-137712619D01*
X212702380Y-137712619D02*
X212702380Y-136712619D01*
X212702380Y-136712619D02*
X212797618Y-136855476D01*
X212797618Y-136855476D02*
X212892856Y-136950714D01*
X212892856Y-136950714D02*
X212988094Y-136998333D01*
G04 #@! TO.C,C31*
X139617380Y-117107142D02*
X139665000Y-117059523D01*
X139665000Y-117059523D02*
X139712619Y-116916666D01*
X139712619Y-116916666D02*
X139712619Y-116821428D01*
X139712619Y-116821428D02*
X139665000Y-116678571D01*
X139665000Y-116678571D02*
X139569761Y-116583333D01*
X139569761Y-116583333D02*
X139474523Y-116535714D01*
X139474523Y-116535714D02*
X139284047Y-116488095D01*
X139284047Y-116488095D02*
X139141190Y-116488095D01*
X139141190Y-116488095D02*
X138950714Y-116535714D01*
X138950714Y-116535714D02*
X138855476Y-116583333D01*
X138855476Y-116583333D02*
X138760238Y-116678571D01*
X138760238Y-116678571D02*
X138712619Y-116821428D01*
X138712619Y-116821428D02*
X138712619Y-116916666D01*
X138712619Y-116916666D02*
X138760238Y-117059523D01*
X138760238Y-117059523D02*
X138807857Y-117107142D01*
X138712619Y-117440476D02*
X138712619Y-118059523D01*
X138712619Y-118059523D02*
X139093571Y-117726190D01*
X139093571Y-117726190D02*
X139093571Y-117869047D01*
X139093571Y-117869047D02*
X139141190Y-117964285D01*
X139141190Y-117964285D02*
X139188809Y-118011904D01*
X139188809Y-118011904D02*
X139284047Y-118059523D01*
X139284047Y-118059523D02*
X139522142Y-118059523D01*
X139522142Y-118059523D02*
X139617380Y-118011904D01*
X139617380Y-118011904D02*
X139665000Y-117964285D01*
X139665000Y-117964285D02*
X139712619Y-117869047D01*
X139712619Y-117869047D02*
X139712619Y-117583333D01*
X139712619Y-117583333D02*
X139665000Y-117488095D01*
X139665000Y-117488095D02*
X139617380Y-117440476D01*
X139712619Y-119011904D02*
X139712619Y-118440476D01*
X139712619Y-118726190D02*
X138712619Y-118726190D01*
X138712619Y-118726190D02*
X138855476Y-118630952D01*
X138855476Y-118630952D02*
X138950714Y-118535714D01*
X138950714Y-118535714D02*
X138998333Y-118440476D01*
G04 #@! TO.C,D18*
X224812619Y-137785714D02*
X223812619Y-137785714D01*
X223812619Y-137785714D02*
X223812619Y-138023809D01*
X223812619Y-138023809D02*
X223860238Y-138166666D01*
X223860238Y-138166666D02*
X223955476Y-138261904D01*
X223955476Y-138261904D02*
X224050714Y-138309523D01*
X224050714Y-138309523D02*
X224241190Y-138357142D01*
X224241190Y-138357142D02*
X224384047Y-138357142D01*
X224384047Y-138357142D02*
X224574523Y-138309523D01*
X224574523Y-138309523D02*
X224669761Y-138261904D01*
X224669761Y-138261904D02*
X224765000Y-138166666D01*
X224765000Y-138166666D02*
X224812619Y-138023809D01*
X224812619Y-138023809D02*
X224812619Y-137785714D01*
X224812619Y-139309523D02*
X224812619Y-138738095D01*
X224812619Y-139023809D02*
X223812619Y-139023809D01*
X223812619Y-139023809D02*
X223955476Y-138928571D01*
X223955476Y-138928571D02*
X224050714Y-138833333D01*
X224050714Y-138833333D02*
X224098333Y-138738095D01*
X224241190Y-139880952D02*
X224193571Y-139785714D01*
X224193571Y-139785714D02*
X224145952Y-139738095D01*
X224145952Y-139738095D02*
X224050714Y-139690476D01*
X224050714Y-139690476D02*
X224003095Y-139690476D01*
X224003095Y-139690476D02*
X223907857Y-139738095D01*
X223907857Y-139738095D02*
X223860238Y-139785714D01*
X223860238Y-139785714D02*
X223812619Y-139880952D01*
X223812619Y-139880952D02*
X223812619Y-140071428D01*
X223812619Y-140071428D02*
X223860238Y-140166666D01*
X223860238Y-140166666D02*
X223907857Y-140214285D01*
X223907857Y-140214285D02*
X224003095Y-140261904D01*
X224003095Y-140261904D02*
X224050714Y-140261904D01*
X224050714Y-140261904D02*
X224145952Y-140214285D01*
X224145952Y-140214285D02*
X224193571Y-140166666D01*
X224193571Y-140166666D02*
X224241190Y-140071428D01*
X224241190Y-140071428D02*
X224241190Y-139880952D01*
X224241190Y-139880952D02*
X224288809Y-139785714D01*
X224288809Y-139785714D02*
X224336428Y-139738095D01*
X224336428Y-139738095D02*
X224431666Y-139690476D01*
X224431666Y-139690476D02*
X224622142Y-139690476D01*
X224622142Y-139690476D02*
X224717380Y-139738095D01*
X224717380Y-139738095D02*
X224765000Y-139785714D01*
X224765000Y-139785714D02*
X224812619Y-139880952D01*
X224812619Y-139880952D02*
X224812619Y-140071428D01*
X224812619Y-140071428D02*
X224765000Y-140166666D01*
X224765000Y-140166666D02*
X224717380Y-140214285D01*
X224717380Y-140214285D02*
X224622142Y-140261904D01*
X224622142Y-140261904D02*
X224431666Y-140261904D01*
X224431666Y-140261904D02*
X224336428Y-140214285D01*
X224336428Y-140214285D02*
X224288809Y-140166666D01*
X224288809Y-140166666D02*
X224241190Y-140071428D01*
G04 #@! TO.C,D13*
X155214285Y-103812619D02*
X155214285Y-102812619D01*
X155214285Y-102812619D02*
X154976190Y-102812619D01*
X154976190Y-102812619D02*
X154833333Y-102860238D01*
X154833333Y-102860238D02*
X154738095Y-102955476D01*
X154738095Y-102955476D02*
X154690476Y-103050714D01*
X154690476Y-103050714D02*
X154642857Y-103241190D01*
X154642857Y-103241190D02*
X154642857Y-103384047D01*
X154642857Y-103384047D02*
X154690476Y-103574523D01*
X154690476Y-103574523D02*
X154738095Y-103669761D01*
X154738095Y-103669761D02*
X154833333Y-103765000D01*
X154833333Y-103765000D02*
X154976190Y-103812619D01*
X154976190Y-103812619D02*
X155214285Y-103812619D01*
X153690476Y-103812619D02*
X154261904Y-103812619D01*
X153976190Y-103812619D02*
X153976190Y-102812619D01*
X153976190Y-102812619D02*
X154071428Y-102955476D01*
X154071428Y-102955476D02*
X154166666Y-103050714D01*
X154166666Y-103050714D02*
X154261904Y-103098333D01*
X153357142Y-102812619D02*
X152738095Y-102812619D01*
X152738095Y-102812619D02*
X153071428Y-103193571D01*
X153071428Y-103193571D02*
X152928571Y-103193571D01*
X152928571Y-103193571D02*
X152833333Y-103241190D01*
X152833333Y-103241190D02*
X152785714Y-103288809D01*
X152785714Y-103288809D02*
X152738095Y-103384047D01*
X152738095Y-103384047D02*
X152738095Y-103622142D01*
X152738095Y-103622142D02*
X152785714Y-103717380D01*
X152785714Y-103717380D02*
X152833333Y-103765000D01*
X152833333Y-103765000D02*
X152928571Y-103812619D01*
X152928571Y-103812619D02*
X153214285Y-103812619D01*
X153214285Y-103812619D02*
X153309523Y-103765000D01*
X153309523Y-103765000D02*
X153357142Y-103717380D01*
G04 #@! TO.C,D20*
X52812619Y-121785714D02*
X51812619Y-121785714D01*
X51812619Y-121785714D02*
X51812619Y-122023809D01*
X51812619Y-122023809D02*
X51860238Y-122166666D01*
X51860238Y-122166666D02*
X51955476Y-122261904D01*
X51955476Y-122261904D02*
X52050714Y-122309523D01*
X52050714Y-122309523D02*
X52241190Y-122357142D01*
X52241190Y-122357142D02*
X52384047Y-122357142D01*
X52384047Y-122357142D02*
X52574523Y-122309523D01*
X52574523Y-122309523D02*
X52669761Y-122261904D01*
X52669761Y-122261904D02*
X52765000Y-122166666D01*
X52765000Y-122166666D02*
X52812619Y-122023809D01*
X52812619Y-122023809D02*
X52812619Y-121785714D01*
X51907857Y-122738095D02*
X51860238Y-122785714D01*
X51860238Y-122785714D02*
X51812619Y-122880952D01*
X51812619Y-122880952D02*
X51812619Y-123119047D01*
X51812619Y-123119047D02*
X51860238Y-123214285D01*
X51860238Y-123214285D02*
X51907857Y-123261904D01*
X51907857Y-123261904D02*
X52003095Y-123309523D01*
X52003095Y-123309523D02*
X52098333Y-123309523D01*
X52098333Y-123309523D02*
X52241190Y-123261904D01*
X52241190Y-123261904D02*
X52812619Y-122690476D01*
X52812619Y-122690476D02*
X52812619Y-123309523D01*
X51812619Y-123928571D02*
X51812619Y-124023809D01*
X51812619Y-124023809D02*
X51860238Y-124119047D01*
X51860238Y-124119047D02*
X51907857Y-124166666D01*
X51907857Y-124166666D02*
X52003095Y-124214285D01*
X52003095Y-124214285D02*
X52193571Y-124261904D01*
X52193571Y-124261904D02*
X52431666Y-124261904D01*
X52431666Y-124261904D02*
X52622142Y-124214285D01*
X52622142Y-124214285D02*
X52717380Y-124166666D01*
X52717380Y-124166666D02*
X52765000Y-124119047D01*
X52765000Y-124119047D02*
X52812619Y-124023809D01*
X52812619Y-124023809D02*
X52812619Y-123928571D01*
X52812619Y-123928571D02*
X52765000Y-123833333D01*
X52765000Y-123833333D02*
X52717380Y-123785714D01*
X52717380Y-123785714D02*
X52622142Y-123738095D01*
X52622142Y-123738095D02*
X52431666Y-123690476D01*
X52431666Y-123690476D02*
X52193571Y-123690476D01*
X52193571Y-123690476D02*
X52003095Y-123738095D01*
X52003095Y-123738095D02*
X51907857Y-123785714D01*
X51907857Y-123785714D02*
X51860238Y-123833333D01*
X51860238Y-123833333D02*
X51812619Y-123928571D01*
G04 #@! TO.C,D12*
X141214285Y-103812619D02*
X141214285Y-102812619D01*
X141214285Y-102812619D02*
X140976190Y-102812619D01*
X140976190Y-102812619D02*
X140833333Y-102860238D01*
X140833333Y-102860238D02*
X140738095Y-102955476D01*
X140738095Y-102955476D02*
X140690476Y-103050714D01*
X140690476Y-103050714D02*
X140642857Y-103241190D01*
X140642857Y-103241190D02*
X140642857Y-103384047D01*
X140642857Y-103384047D02*
X140690476Y-103574523D01*
X140690476Y-103574523D02*
X140738095Y-103669761D01*
X140738095Y-103669761D02*
X140833333Y-103765000D01*
X140833333Y-103765000D02*
X140976190Y-103812619D01*
X140976190Y-103812619D02*
X141214285Y-103812619D01*
X139690476Y-103812619D02*
X140261904Y-103812619D01*
X139976190Y-103812619D02*
X139976190Y-102812619D01*
X139976190Y-102812619D02*
X140071428Y-102955476D01*
X140071428Y-102955476D02*
X140166666Y-103050714D01*
X140166666Y-103050714D02*
X140261904Y-103098333D01*
X139309523Y-102907857D02*
X139261904Y-102860238D01*
X139261904Y-102860238D02*
X139166666Y-102812619D01*
X139166666Y-102812619D02*
X138928571Y-102812619D01*
X138928571Y-102812619D02*
X138833333Y-102860238D01*
X138833333Y-102860238D02*
X138785714Y-102907857D01*
X138785714Y-102907857D02*
X138738095Y-103003095D01*
X138738095Y-103003095D02*
X138738095Y-103098333D01*
X138738095Y-103098333D02*
X138785714Y-103241190D01*
X138785714Y-103241190D02*
X139357142Y-103812619D01*
X139357142Y-103812619D02*
X138738095Y-103812619D01*
G04 #@! TO.C,D8*
X83738094Y-103812619D02*
X83738094Y-102812619D01*
X83738094Y-102812619D02*
X83499999Y-102812619D01*
X83499999Y-102812619D02*
X83357142Y-102860238D01*
X83357142Y-102860238D02*
X83261904Y-102955476D01*
X83261904Y-102955476D02*
X83214285Y-103050714D01*
X83214285Y-103050714D02*
X83166666Y-103241190D01*
X83166666Y-103241190D02*
X83166666Y-103384047D01*
X83166666Y-103384047D02*
X83214285Y-103574523D01*
X83214285Y-103574523D02*
X83261904Y-103669761D01*
X83261904Y-103669761D02*
X83357142Y-103765000D01*
X83357142Y-103765000D02*
X83499999Y-103812619D01*
X83499999Y-103812619D02*
X83738094Y-103812619D01*
X82595237Y-103241190D02*
X82690475Y-103193571D01*
X82690475Y-103193571D02*
X82738094Y-103145952D01*
X82738094Y-103145952D02*
X82785713Y-103050714D01*
X82785713Y-103050714D02*
X82785713Y-103003095D01*
X82785713Y-103003095D02*
X82738094Y-102907857D01*
X82738094Y-102907857D02*
X82690475Y-102860238D01*
X82690475Y-102860238D02*
X82595237Y-102812619D01*
X82595237Y-102812619D02*
X82404761Y-102812619D01*
X82404761Y-102812619D02*
X82309523Y-102860238D01*
X82309523Y-102860238D02*
X82261904Y-102907857D01*
X82261904Y-102907857D02*
X82214285Y-103003095D01*
X82214285Y-103003095D02*
X82214285Y-103050714D01*
X82214285Y-103050714D02*
X82261904Y-103145952D01*
X82261904Y-103145952D02*
X82309523Y-103193571D01*
X82309523Y-103193571D02*
X82404761Y-103241190D01*
X82404761Y-103241190D02*
X82595237Y-103241190D01*
X82595237Y-103241190D02*
X82690475Y-103288809D01*
X82690475Y-103288809D02*
X82738094Y-103336428D01*
X82738094Y-103336428D02*
X82785713Y-103431666D01*
X82785713Y-103431666D02*
X82785713Y-103622142D01*
X82785713Y-103622142D02*
X82738094Y-103717380D01*
X82738094Y-103717380D02*
X82690475Y-103765000D01*
X82690475Y-103765000D02*
X82595237Y-103812619D01*
X82595237Y-103812619D02*
X82404761Y-103812619D01*
X82404761Y-103812619D02*
X82309523Y-103765000D01*
X82309523Y-103765000D02*
X82261904Y-103717380D01*
X82261904Y-103717380D02*
X82214285Y-103622142D01*
X82214285Y-103622142D02*
X82214285Y-103431666D01*
X82214285Y-103431666D02*
X82261904Y-103336428D01*
X82261904Y-103336428D02*
X82309523Y-103288809D01*
X82309523Y-103288809D02*
X82404761Y-103241190D01*
G04 #@! TO.C,D9*
X97738094Y-103812619D02*
X97738094Y-102812619D01*
X97738094Y-102812619D02*
X97499999Y-102812619D01*
X97499999Y-102812619D02*
X97357142Y-102860238D01*
X97357142Y-102860238D02*
X97261904Y-102955476D01*
X97261904Y-102955476D02*
X97214285Y-103050714D01*
X97214285Y-103050714D02*
X97166666Y-103241190D01*
X97166666Y-103241190D02*
X97166666Y-103384047D01*
X97166666Y-103384047D02*
X97214285Y-103574523D01*
X97214285Y-103574523D02*
X97261904Y-103669761D01*
X97261904Y-103669761D02*
X97357142Y-103765000D01*
X97357142Y-103765000D02*
X97499999Y-103812619D01*
X97499999Y-103812619D02*
X97738094Y-103812619D01*
X96690475Y-103812619D02*
X96499999Y-103812619D01*
X96499999Y-103812619D02*
X96404761Y-103765000D01*
X96404761Y-103765000D02*
X96357142Y-103717380D01*
X96357142Y-103717380D02*
X96261904Y-103574523D01*
X96261904Y-103574523D02*
X96214285Y-103384047D01*
X96214285Y-103384047D02*
X96214285Y-103003095D01*
X96214285Y-103003095D02*
X96261904Y-102907857D01*
X96261904Y-102907857D02*
X96309523Y-102860238D01*
X96309523Y-102860238D02*
X96404761Y-102812619D01*
X96404761Y-102812619D02*
X96595237Y-102812619D01*
X96595237Y-102812619D02*
X96690475Y-102860238D01*
X96690475Y-102860238D02*
X96738094Y-102907857D01*
X96738094Y-102907857D02*
X96785713Y-103003095D01*
X96785713Y-103003095D02*
X96785713Y-103241190D01*
X96785713Y-103241190D02*
X96738094Y-103336428D01*
X96738094Y-103336428D02*
X96690475Y-103384047D01*
X96690475Y-103384047D02*
X96595237Y-103431666D01*
X96595237Y-103431666D02*
X96404761Y-103431666D01*
X96404761Y-103431666D02*
X96309523Y-103384047D01*
X96309523Y-103384047D02*
X96261904Y-103336428D01*
X96261904Y-103336428D02*
X96214285Y-103241190D01*
G04 #@! TO.C,D19*
X224812619Y-121785714D02*
X223812619Y-121785714D01*
X223812619Y-121785714D02*
X223812619Y-122023809D01*
X223812619Y-122023809D02*
X223860238Y-122166666D01*
X223860238Y-122166666D02*
X223955476Y-122261904D01*
X223955476Y-122261904D02*
X224050714Y-122309523D01*
X224050714Y-122309523D02*
X224241190Y-122357142D01*
X224241190Y-122357142D02*
X224384047Y-122357142D01*
X224384047Y-122357142D02*
X224574523Y-122309523D01*
X224574523Y-122309523D02*
X224669761Y-122261904D01*
X224669761Y-122261904D02*
X224765000Y-122166666D01*
X224765000Y-122166666D02*
X224812619Y-122023809D01*
X224812619Y-122023809D02*
X224812619Y-121785714D01*
X224812619Y-123309523D02*
X224812619Y-122738095D01*
X224812619Y-123023809D02*
X223812619Y-123023809D01*
X223812619Y-123023809D02*
X223955476Y-122928571D01*
X223955476Y-122928571D02*
X224050714Y-122833333D01*
X224050714Y-122833333D02*
X224098333Y-122738095D01*
X224812619Y-123785714D02*
X224812619Y-123976190D01*
X224812619Y-123976190D02*
X224765000Y-124071428D01*
X224765000Y-124071428D02*
X224717380Y-124119047D01*
X224717380Y-124119047D02*
X224574523Y-124214285D01*
X224574523Y-124214285D02*
X224384047Y-124261904D01*
X224384047Y-124261904D02*
X224003095Y-124261904D01*
X224003095Y-124261904D02*
X223907857Y-124214285D01*
X223907857Y-124214285D02*
X223860238Y-124166666D01*
X223860238Y-124166666D02*
X223812619Y-124071428D01*
X223812619Y-124071428D02*
X223812619Y-123880952D01*
X223812619Y-123880952D02*
X223860238Y-123785714D01*
X223860238Y-123785714D02*
X223907857Y-123738095D01*
X223907857Y-123738095D02*
X224003095Y-123690476D01*
X224003095Y-123690476D02*
X224241190Y-123690476D01*
X224241190Y-123690476D02*
X224336428Y-123738095D01*
X224336428Y-123738095D02*
X224384047Y-123785714D01*
X224384047Y-123785714D02*
X224431666Y-123880952D01*
X224431666Y-123880952D02*
X224431666Y-124071428D01*
X224431666Y-124071428D02*
X224384047Y-124166666D01*
X224384047Y-124166666D02*
X224336428Y-124214285D01*
X224336428Y-124214285D02*
X224241190Y-124261904D01*
G04 #@! TO.C,D11*
X126214285Y-103812619D02*
X126214285Y-102812619D01*
X126214285Y-102812619D02*
X125976190Y-102812619D01*
X125976190Y-102812619D02*
X125833333Y-102860238D01*
X125833333Y-102860238D02*
X125738095Y-102955476D01*
X125738095Y-102955476D02*
X125690476Y-103050714D01*
X125690476Y-103050714D02*
X125642857Y-103241190D01*
X125642857Y-103241190D02*
X125642857Y-103384047D01*
X125642857Y-103384047D02*
X125690476Y-103574523D01*
X125690476Y-103574523D02*
X125738095Y-103669761D01*
X125738095Y-103669761D02*
X125833333Y-103765000D01*
X125833333Y-103765000D02*
X125976190Y-103812619D01*
X125976190Y-103812619D02*
X126214285Y-103812619D01*
X124690476Y-103812619D02*
X125261904Y-103812619D01*
X124976190Y-103812619D02*
X124976190Y-102812619D01*
X124976190Y-102812619D02*
X125071428Y-102955476D01*
X125071428Y-102955476D02*
X125166666Y-103050714D01*
X125166666Y-103050714D02*
X125261904Y-103098333D01*
X123738095Y-103812619D02*
X124309523Y-103812619D01*
X124023809Y-103812619D02*
X124023809Y-102812619D01*
X124023809Y-102812619D02*
X124119047Y-102955476D01*
X124119047Y-102955476D02*
X124214285Y-103050714D01*
X124214285Y-103050714D02*
X124309523Y-103098333D01*
G04 #@! TO.C,D10*
X112214285Y-103812619D02*
X112214285Y-102812619D01*
X112214285Y-102812619D02*
X111976190Y-102812619D01*
X111976190Y-102812619D02*
X111833333Y-102860238D01*
X111833333Y-102860238D02*
X111738095Y-102955476D01*
X111738095Y-102955476D02*
X111690476Y-103050714D01*
X111690476Y-103050714D02*
X111642857Y-103241190D01*
X111642857Y-103241190D02*
X111642857Y-103384047D01*
X111642857Y-103384047D02*
X111690476Y-103574523D01*
X111690476Y-103574523D02*
X111738095Y-103669761D01*
X111738095Y-103669761D02*
X111833333Y-103765000D01*
X111833333Y-103765000D02*
X111976190Y-103812619D01*
X111976190Y-103812619D02*
X112214285Y-103812619D01*
X110690476Y-103812619D02*
X111261904Y-103812619D01*
X110976190Y-103812619D02*
X110976190Y-102812619D01*
X110976190Y-102812619D02*
X111071428Y-102955476D01*
X111071428Y-102955476D02*
X111166666Y-103050714D01*
X111166666Y-103050714D02*
X111261904Y-103098333D01*
X110071428Y-102812619D02*
X109976190Y-102812619D01*
X109976190Y-102812619D02*
X109880952Y-102860238D01*
X109880952Y-102860238D02*
X109833333Y-102907857D01*
X109833333Y-102907857D02*
X109785714Y-103003095D01*
X109785714Y-103003095D02*
X109738095Y-103193571D01*
X109738095Y-103193571D02*
X109738095Y-103431666D01*
X109738095Y-103431666D02*
X109785714Y-103622142D01*
X109785714Y-103622142D02*
X109833333Y-103717380D01*
X109833333Y-103717380D02*
X109880952Y-103765000D01*
X109880952Y-103765000D02*
X109976190Y-103812619D01*
X109976190Y-103812619D02*
X110071428Y-103812619D01*
X110071428Y-103812619D02*
X110166666Y-103765000D01*
X110166666Y-103765000D02*
X110214285Y-103717380D01*
X110214285Y-103717380D02*
X110261904Y-103622142D01*
X110261904Y-103622142D02*
X110309523Y-103431666D01*
X110309523Y-103431666D02*
X110309523Y-103193571D01*
X110309523Y-103193571D02*
X110261904Y-103003095D01*
X110261904Y-103003095D02*
X110214285Y-102907857D01*
X110214285Y-102907857D02*
X110166666Y-102860238D01*
X110166666Y-102860238D02*
X110071428Y-102812619D01*
G04 #@! TO.C,D16*
X198214285Y-103812619D02*
X198214285Y-102812619D01*
X198214285Y-102812619D02*
X197976190Y-102812619D01*
X197976190Y-102812619D02*
X197833333Y-102860238D01*
X197833333Y-102860238D02*
X197738095Y-102955476D01*
X197738095Y-102955476D02*
X197690476Y-103050714D01*
X197690476Y-103050714D02*
X197642857Y-103241190D01*
X197642857Y-103241190D02*
X197642857Y-103384047D01*
X197642857Y-103384047D02*
X197690476Y-103574523D01*
X197690476Y-103574523D02*
X197738095Y-103669761D01*
X197738095Y-103669761D02*
X197833333Y-103765000D01*
X197833333Y-103765000D02*
X197976190Y-103812619D01*
X197976190Y-103812619D02*
X198214285Y-103812619D01*
X196690476Y-103812619D02*
X197261904Y-103812619D01*
X196976190Y-103812619D02*
X196976190Y-102812619D01*
X196976190Y-102812619D02*
X197071428Y-102955476D01*
X197071428Y-102955476D02*
X197166666Y-103050714D01*
X197166666Y-103050714D02*
X197261904Y-103098333D01*
X195833333Y-102812619D02*
X196023809Y-102812619D01*
X196023809Y-102812619D02*
X196119047Y-102860238D01*
X196119047Y-102860238D02*
X196166666Y-102907857D01*
X196166666Y-102907857D02*
X196261904Y-103050714D01*
X196261904Y-103050714D02*
X196309523Y-103241190D01*
X196309523Y-103241190D02*
X196309523Y-103622142D01*
X196309523Y-103622142D02*
X196261904Y-103717380D01*
X196261904Y-103717380D02*
X196214285Y-103765000D01*
X196214285Y-103765000D02*
X196119047Y-103812619D01*
X196119047Y-103812619D02*
X195928571Y-103812619D01*
X195928571Y-103812619D02*
X195833333Y-103765000D01*
X195833333Y-103765000D02*
X195785714Y-103717380D01*
X195785714Y-103717380D02*
X195738095Y-103622142D01*
X195738095Y-103622142D02*
X195738095Y-103384047D01*
X195738095Y-103384047D02*
X195785714Y-103288809D01*
X195785714Y-103288809D02*
X195833333Y-103241190D01*
X195833333Y-103241190D02*
X195928571Y-103193571D01*
X195928571Y-103193571D02*
X196119047Y-103193571D01*
X196119047Y-103193571D02*
X196214285Y-103241190D01*
X196214285Y-103241190D02*
X196261904Y-103288809D01*
X196261904Y-103288809D02*
X196309523Y-103384047D01*
G04 #@! TO.C,D21*
X52812619Y-137785714D02*
X51812619Y-137785714D01*
X51812619Y-137785714D02*
X51812619Y-138023809D01*
X51812619Y-138023809D02*
X51860238Y-138166666D01*
X51860238Y-138166666D02*
X51955476Y-138261904D01*
X51955476Y-138261904D02*
X52050714Y-138309523D01*
X52050714Y-138309523D02*
X52241190Y-138357142D01*
X52241190Y-138357142D02*
X52384047Y-138357142D01*
X52384047Y-138357142D02*
X52574523Y-138309523D01*
X52574523Y-138309523D02*
X52669761Y-138261904D01*
X52669761Y-138261904D02*
X52765000Y-138166666D01*
X52765000Y-138166666D02*
X52812619Y-138023809D01*
X52812619Y-138023809D02*
X52812619Y-137785714D01*
X51907857Y-138738095D02*
X51860238Y-138785714D01*
X51860238Y-138785714D02*
X51812619Y-138880952D01*
X51812619Y-138880952D02*
X51812619Y-139119047D01*
X51812619Y-139119047D02*
X51860238Y-139214285D01*
X51860238Y-139214285D02*
X51907857Y-139261904D01*
X51907857Y-139261904D02*
X52003095Y-139309523D01*
X52003095Y-139309523D02*
X52098333Y-139309523D01*
X52098333Y-139309523D02*
X52241190Y-139261904D01*
X52241190Y-139261904D02*
X52812619Y-138690476D01*
X52812619Y-138690476D02*
X52812619Y-139309523D01*
X52812619Y-140261904D02*
X52812619Y-139690476D01*
X52812619Y-139976190D02*
X51812619Y-139976190D01*
X51812619Y-139976190D02*
X51955476Y-139880952D01*
X51955476Y-139880952D02*
X52050714Y-139785714D01*
X52050714Y-139785714D02*
X52098333Y-139690476D01*
G04 #@! TO.C,D14*
X169214285Y-103812619D02*
X169214285Y-102812619D01*
X169214285Y-102812619D02*
X168976190Y-102812619D01*
X168976190Y-102812619D02*
X168833333Y-102860238D01*
X168833333Y-102860238D02*
X168738095Y-102955476D01*
X168738095Y-102955476D02*
X168690476Y-103050714D01*
X168690476Y-103050714D02*
X168642857Y-103241190D01*
X168642857Y-103241190D02*
X168642857Y-103384047D01*
X168642857Y-103384047D02*
X168690476Y-103574523D01*
X168690476Y-103574523D02*
X168738095Y-103669761D01*
X168738095Y-103669761D02*
X168833333Y-103765000D01*
X168833333Y-103765000D02*
X168976190Y-103812619D01*
X168976190Y-103812619D02*
X169214285Y-103812619D01*
X167690476Y-103812619D02*
X168261904Y-103812619D01*
X167976190Y-103812619D02*
X167976190Y-102812619D01*
X167976190Y-102812619D02*
X168071428Y-102955476D01*
X168071428Y-102955476D02*
X168166666Y-103050714D01*
X168166666Y-103050714D02*
X168261904Y-103098333D01*
X166833333Y-103145952D02*
X166833333Y-103812619D01*
X167071428Y-102765000D02*
X167309523Y-103479285D01*
X167309523Y-103479285D02*
X166690476Y-103479285D01*
G04 #@! TO.C,D17*
X212214285Y-103812619D02*
X212214285Y-102812619D01*
X212214285Y-102812619D02*
X211976190Y-102812619D01*
X211976190Y-102812619D02*
X211833333Y-102860238D01*
X211833333Y-102860238D02*
X211738095Y-102955476D01*
X211738095Y-102955476D02*
X211690476Y-103050714D01*
X211690476Y-103050714D02*
X211642857Y-103241190D01*
X211642857Y-103241190D02*
X211642857Y-103384047D01*
X211642857Y-103384047D02*
X211690476Y-103574523D01*
X211690476Y-103574523D02*
X211738095Y-103669761D01*
X211738095Y-103669761D02*
X211833333Y-103765000D01*
X211833333Y-103765000D02*
X211976190Y-103812619D01*
X211976190Y-103812619D02*
X212214285Y-103812619D01*
X210690476Y-103812619D02*
X211261904Y-103812619D01*
X210976190Y-103812619D02*
X210976190Y-102812619D01*
X210976190Y-102812619D02*
X211071428Y-102955476D01*
X211071428Y-102955476D02*
X211166666Y-103050714D01*
X211166666Y-103050714D02*
X211261904Y-103098333D01*
X210357142Y-102812619D02*
X209690476Y-102812619D01*
X209690476Y-102812619D02*
X210119047Y-103812619D01*
G04 #@! TO.C,D7*
X69738094Y-103812619D02*
X69738094Y-102812619D01*
X69738094Y-102812619D02*
X69499999Y-102812619D01*
X69499999Y-102812619D02*
X69357142Y-102860238D01*
X69357142Y-102860238D02*
X69261904Y-102955476D01*
X69261904Y-102955476D02*
X69214285Y-103050714D01*
X69214285Y-103050714D02*
X69166666Y-103241190D01*
X69166666Y-103241190D02*
X69166666Y-103384047D01*
X69166666Y-103384047D02*
X69214285Y-103574523D01*
X69214285Y-103574523D02*
X69261904Y-103669761D01*
X69261904Y-103669761D02*
X69357142Y-103765000D01*
X69357142Y-103765000D02*
X69499999Y-103812619D01*
X69499999Y-103812619D02*
X69738094Y-103812619D01*
X68833332Y-102812619D02*
X68166666Y-102812619D01*
X68166666Y-102812619D02*
X68595237Y-103812619D01*
G04 #@! TO.C,D15*
X184214285Y-103812619D02*
X184214285Y-102812619D01*
X184214285Y-102812619D02*
X183976190Y-102812619D01*
X183976190Y-102812619D02*
X183833333Y-102860238D01*
X183833333Y-102860238D02*
X183738095Y-102955476D01*
X183738095Y-102955476D02*
X183690476Y-103050714D01*
X183690476Y-103050714D02*
X183642857Y-103241190D01*
X183642857Y-103241190D02*
X183642857Y-103384047D01*
X183642857Y-103384047D02*
X183690476Y-103574523D01*
X183690476Y-103574523D02*
X183738095Y-103669761D01*
X183738095Y-103669761D02*
X183833333Y-103765000D01*
X183833333Y-103765000D02*
X183976190Y-103812619D01*
X183976190Y-103812619D02*
X184214285Y-103812619D01*
X182690476Y-103812619D02*
X183261904Y-103812619D01*
X182976190Y-103812619D02*
X182976190Y-102812619D01*
X182976190Y-102812619D02*
X183071428Y-102955476D01*
X183071428Y-102955476D02*
X183166666Y-103050714D01*
X183166666Y-103050714D02*
X183261904Y-103098333D01*
X181785714Y-102812619D02*
X182261904Y-102812619D01*
X182261904Y-102812619D02*
X182309523Y-103288809D01*
X182309523Y-103288809D02*
X182261904Y-103241190D01*
X182261904Y-103241190D02*
X182166666Y-103193571D01*
X182166666Y-103193571D02*
X181928571Y-103193571D01*
X181928571Y-103193571D02*
X181833333Y-103241190D01*
X181833333Y-103241190D02*
X181785714Y-103288809D01*
X181785714Y-103288809D02*
X181738095Y-103384047D01*
X181738095Y-103384047D02*
X181738095Y-103622142D01*
X181738095Y-103622142D02*
X181785714Y-103717380D01*
X181785714Y-103717380D02*
X181833333Y-103765000D01*
X181833333Y-103765000D02*
X181928571Y-103812619D01*
X181928571Y-103812619D02*
X182166666Y-103812619D01*
X182166666Y-103812619D02*
X182261904Y-103765000D01*
X182261904Y-103765000D02*
X182309523Y-103717380D01*
D11*
G04 #@! TO.C,C29*
X138010000Y-125890580D02*
X138010000Y-125609420D01*
X136990000Y-125890580D02*
X136990000Y-125609420D01*
G04 #@! TO.C,SW1*
X210250000Y-133750000D02*
X210250000Y-132250000D01*
X211500000Y-129750000D02*
X216000000Y-129750000D01*
X216000000Y-136250000D02*
X211500000Y-136250000D01*
X217250000Y-132250000D02*
X217250000Y-133750000D01*
G04 #@! TO.C,C31*
X139760000Y-120890580D02*
X139760000Y-120609420D01*
X138740000Y-120890580D02*
X138740000Y-120609420D01*
G04 #@! TO.C,D18*
X226960000Y-137140000D02*
X226960000Y-140000000D01*
X225040000Y-137140000D02*
X226960000Y-137140000D01*
X225040000Y-140000000D02*
X225040000Y-137140000D01*
G04 #@! TO.C,D13*
X155860000Y-105960000D02*
X153000000Y-105960000D01*
X155860000Y-104040000D02*
X155860000Y-105960000D01*
X153000000Y-104040000D02*
X155860000Y-104040000D01*
G04 #@! TO.C,D20*
X54960000Y-121140000D02*
X54960000Y-124000000D01*
X53040000Y-121140000D02*
X54960000Y-121140000D01*
X53040000Y-124000000D02*
X53040000Y-121140000D01*
G04 #@! TO.C,D12*
X141860000Y-105960000D02*
X139000000Y-105960000D01*
X141860000Y-104040000D02*
X141860000Y-105960000D01*
X139000000Y-104040000D02*
X141860000Y-104040000D01*
G04 #@! TO.C,D8*
X84860000Y-105960000D02*
X82000000Y-105960000D01*
X84860000Y-104040000D02*
X84860000Y-105960000D01*
X82000000Y-104040000D02*
X84860000Y-104040000D01*
G04 #@! TO.C,D9*
X98860000Y-105960000D02*
X96000000Y-105960000D01*
X98860000Y-104040000D02*
X98860000Y-105960000D01*
X96000000Y-104040000D02*
X98860000Y-104040000D01*
G04 #@! TO.C,D19*
X226960000Y-121140000D02*
X226960000Y-124000000D01*
X225040000Y-121140000D02*
X226960000Y-121140000D01*
X225040000Y-124000000D02*
X225040000Y-121140000D01*
G04 #@! TO.C,D11*
X126860000Y-105960000D02*
X124000000Y-105960000D01*
X126860000Y-104040000D02*
X126860000Y-105960000D01*
X124000000Y-104040000D02*
X126860000Y-104040000D01*
G04 #@! TO.C,D10*
X112860000Y-105960000D02*
X110000000Y-105960000D01*
X112860000Y-104040000D02*
X112860000Y-105960000D01*
X110000000Y-104040000D02*
X112860000Y-104040000D01*
G04 #@! TO.C,D16*
X198860000Y-105960000D02*
X196000000Y-105960000D01*
X198860000Y-104040000D02*
X198860000Y-105960000D01*
X196000000Y-104040000D02*
X198860000Y-104040000D01*
G04 #@! TO.C,D21*
X54960000Y-137140000D02*
X54960000Y-140000000D01*
X53040000Y-137140000D02*
X54960000Y-137140000D01*
X53040000Y-140000000D02*
X53040000Y-137140000D01*
G04 #@! TO.C,D14*
X169860000Y-105960000D02*
X167000000Y-105960000D01*
X169860000Y-104040000D02*
X169860000Y-105960000D01*
X167000000Y-104040000D02*
X169860000Y-104040000D01*
G04 #@! TO.C,D17*
X212860000Y-105960000D02*
X210000000Y-105960000D01*
X212860000Y-104040000D02*
X212860000Y-105960000D01*
X210000000Y-104040000D02*
X212860000Y-104040000D01*
G04 #@! TO.C,D7*
X70860000Y-105960000D02*
X68000000Y-105960000D01*
X70860000Y-104040000D02*
X70860000Y-105960000D01*
X68000000Y-104040000D02*
X70860000Y-104040000D01*
G04 #@! TO.C,D15*
X184860000Y-105960000D02*
X182000000Y-105960000D01*
X184860000Y-104040000D02*
X184860000Y-105960000D01*
X182000000Y-104040000D02*
X184860000Y-104040000D01*
G04 #@! TD*
%LPC*%
D12*
G04 #@! TO.C,C29*
X137500000Y-126525000D03*
X137500000Y-124975000D03*
G04 #@! TD*
D13*
G04 #@! TO.C,J3*
X160750000Y-111250000D03*
D14*
X163290000Y-111250000D03*
X160750000Y-113790000D03*
X163290000Y-113790000D03*
X160750000Y-116330000D03*
X163290000Y-116330000D03*
X160750000Y-118870000D03*
X163290000Y-118870000D03*
G04 #@! TD*
D15*
G04 #@! TO.C,J1*
X216600000Y-121000000D03*
D16*
X212400000Y-121000000D03*
X208200000Y-121000000D03*
X204000000Y-121000000D03*
X199800000Y-121000000D03*
X195600000Y-121000000D03*
X191400000Y-121000000D03*
X187200000Y-121000000D03*
X183000000Y-121000000D03*
X178800000Y-121000000D03*
X174600000Y-121000000D03*
X170400000Y-121000000D03*
X216600000Y-115500000D03*
X212400000Y-115500000D03*
X208200000Y-115500000D03*
X204000000Y-115500000D03*
X199800000Y-115500000D03*
X195600000Y-115500000D03*
X191400000Y-115500000D03*
X187200000Y-115500000D03*
X183000000Y-115500000D03*
X178800000Y-115500000D03*
X174600000Y-115500000D03*
X170400000Y-115500000D03*
G04 #@! TD*
D15*
G04 #@! TO.C,J2*
X113000000Y-121000000D03*
D16*
X108800000Y-121000000D03*
X104600000Y-121000000D03*
X100400000Y-121000000D03*
X96200000Y-121000000D03*
X92000000Y-121000000D03*
X87800000Y-121000000D03*
X83600000Y-121000000D03*
X79400000Y-121000000D03*
X75200000Y-121000000D03*
X71000000Y-121000000D03*
X113000000Y-115500000D03*
X108800000Y-115500000D03*
X104600000Y-115500000D03*
X100400000Y-115500000D03*
X96200000Y-115500000D03*
X92000000Y-115500000D03*
X87800000Y-115500000D03*
X83600000Y-115500000D03*
X79400000Y-115500000D03*
X75200000Y-115500000D03*
X71000000Y-115500000D03*
G04 #@! TD*
D17*
G04 #@! TO.C,SW1*
X210500000Y-135250000D03*
X217000000Y-135250000D03*
X210500000Y-130750000D03*
X217000000Y-130750000D03*
G04 #@! TD*
D12*
G04 #@! TO.C,C31*
X139250000Y-121525000D03*
X139250000Y-119975000D03*
G04 #@! TD*
D18*
G04 #@! TO.C,D18*
X226000000Y-137975000D03*
X226000000Y-140025000D03*
G04 #@! TD*
D19*
G04 #@! TO.C,D13*
X155025000Y-105000000D03*
X152975000Y-105000000D03*
G04 #@! TD*
D18*
G04 #@! TO.C,D20*
X54000000Y-121975000D03*
X54000000Y-124025000D03*
G04 #@! TD*
D19*
G04 #@! TO.C,D12*
X141025000Y-105000000D03*
X138975000Y-105000000D03*
G04 #@! TD*
G04 #@! TO.C,D8*
X84025000Y-105000000D03*
X81975000Y-105000000D03*
G04 #@! TD*
G04 #@! TO.C,D9*
X98025000Y-105000000D03*
X95975000Y-105000000D03*
G04 #@! TD*
D18*
G04 #@! TO.C,D19*
X226000000Y-121975000D03*
X226000000Y-124025000D03*
G04 #@! TD*
D19*
G04 #@! TO.C,D11*
X126025000Y-105000000D03*
X123975000Y-105000000D03*
G04 #@! TD*
G04 #@! TO.C,D10*
X112025000Y-105000000D03*
X109975000Y-105000000D03*
G04 #@! TD*
G04 #@! TO.C,D16*
X198025000Y-105000000D03*
X195975000Y-105000000D03*
G04 #@! TD*
D18*
G04 #@! TO.C,D21*
X54000000Y-137975000D03*
X54000000Y-140025000D03*
G04 #@! TD*
D19*
G04 #@! TO.C,D14*
X169025000Y-105000000D03*
X166975000Y-105000000D03*
G04 #@! TD*
G04 #@! TO.C,D17*
X212025000Y-105000000D03*
X209975000Y-105000000D03*
G04 #@! TD*
G04 #@! TO.C,D7*
X70025000Y-105000000D03*
X67975000Y-105000000D03*
G04 #@! TD*
G04 #@! TO.C,D15*
X184025000Y-105000000D03*
X181975000Y-105000000D03*
G04 #@! TD*
M02*
